<svg xmlns="http://www.w3.org/2000/svg" width="156" height="24" viewBox="0 0 156 24" fill="none">
  <g fill="currentColor">
    <path d="M26.5269 3.01973C25.7053 1.79324 24.7871 1.36239 23.4082 1.36239H17.3329C15.9541 1.36239 15.0358 1.79324 14.2142 3.01973L0.71875 23.1922H5.97249L8.26961 19.8402C8.82682 19.01 9.45226 18.5792 10.5354 18.5792H30.2028C31.286 18.5792 31.9115 19.01 32.4687 19.8402L34.7658 23.1922H40.0195L26.5269 3.01973ZM16.7103 6.96632C17.2021 6.20228 17.7935 5.57324 19.0074 5.57324H21.7338C22.9477 5.57324 23.5077 6.20228 24.0308 6.96632L28.8638 14.1644H11.8744L16.7074 6.96632H16.7103Z"/>
    <path d="M81.1511 13.3056V11.249C81.1511 8.39675 80.8896 7.26792 83.7439 6.40622C86.4362 5.61058 91.8207 5.34345 93.6288 5.34345C95.4369 5.34345 100.819 5.60771 103.511 6.40622C106.368 7.26792 106.104 8.39675 106.104 11.249V13.3056C106.104 16.1578 106.365 17.2866 103.511 18.1483C100.819 18.944 95.4341 19.2111 93.6288 19.2111C91.8235 19.2111 86.4362 18.9469 83.7439 18.1483C80.8867 17.2866 81.1511 16.1578 81.1511 13.3056ZM76.6536 8.29622V16.2583C76.6536 19.3432 77.0147 20.8024 80.1988 22.0633C82.9905 23.1577 88.3751 23.9217 93.6288 23.9217C98.8825 23.9217 104.267 23.1577 107.059 22.0633C110.243 20.8024 110.604 19.3432 110.604 16.2583V8.29622C110.604 5.21132 110.243 3.75217 107.059 2.49122C104.267 1.39686 98.8825 0.632812 93.6288 0.632812C88.3751 0.632812 82.9905 1.39686 80.1988 2.49122C77.0147 3.75217 76.6536 5.21132 76.6536 8.29622Z"/>
    <path d="M52.1105 23.1922H56.5114V7.26792C56.5114 6.00696 57.0373 5.57611 58.22 5.57611H72.1106L70.8313 2.89047C70.274 1.69558 69.4837 1.36526 68.1703 1.36526H40.4573C39.1439 1.36526 38.3564 1.69558 37.7963 2.89047L36.517 5.57611H50.4076C51.5903 5.57611 52.1162 6.00696 52.1162 7.26792V23.1922H52.1105Z"/>
    <path d="M138.146 15.9941C139.69 15.9941 140.378 15.4972 140.969 14.6987L149.242 3.38451C150.325 1.8909 151.048 1.36239 152.822 1.36239H155.94V23.1922H151.539V7.33398L143.102 19.1106C142.215 20.3371 141.197 20.8369 139.784 20.8369H134.269C132.856 20.8369 131.807 20.3399 130.92 19.1106L122.448 7.36558V23.1893H118.047V1.36239H121.165C122.939 1.36239 123.693 1.95983 124.745 3.38451L133.021 14.6987C133.612 15.4943 134.3 15.9941 135.844 15.9941H138.146Z"/>
  </g>
</svg>