<svg viewBox="0 0 80 31" fill="none" xmlns="http://www.w3.org/2000/svg" aria-hidden="true">
<path d="M52.5561 25.8372C52.9824 25.5658 53.4039 25.2898 53.816 24.9857L62.4361 18.6601V30.1229C62.9333 30.1697 63.431 30.1977 63.9374 30.1977C64.4921 30.1977 65.0412 30.1697 65.5812 30.1135V18.618C69.0147 21.1398 72.4488 23.6569 75.8829 26.1788C76.2331 25.7904 76.6029 25.3413 76.9672 24.8359C77.261 24.4242 77.5212 24.0265 77.7441 23.6522C74.7698 21.4673 71.7906 19.287 68.8163 17.102H79.8992C79.9512 16.5874 79.9794 16.0681 79.9794 15.5394C79.9794 15.0107 79.9512 14.4914 79.8992 13.9767H68.8163L77.73 7.43586C77.46 6.98671 77.138 6.50013 76.7639 5.99951C76.4608 5.59713 76.1572 5.23687 75.8688 4.91404L65.5861 12.4608V0.983936C65.0461 0.927791 64.4963 0.899719 63.9423 0.899719C63.4353 0.899719 62.9333 0.927791 62.441 0.974578V12.4233L53.8208 6.09775C53.4086 5.79364 52.9871 5.51759 52.5609 5.24623C49.3496 3.21568 46.4367 2.45772 45.4279 2.21444C44.0828 1.89161 42.2308 1.57813 40 1.58281C40 2.62616 40 3.67419 40 4.71754C43.5002 4.70818 47.0051 5.61117 50.15 7.44523C50.4058 7.59492 50.6616 7.74933 50.9126 7.91311C51.2631 8.13768 51.6136 8.36225 51.9499 8.61492L59.2628 13.9814H47.9808H47.9003V17.1068H47.9808H59.2628L51.9499 22.4732C51.6088 22.7212 51.2583 22.9505 50.9126 23.175C50.6616 23.3341 50.4058 23.4931 50.15 23.6429C47.0051 25.4769 43.5002 26.3799 40 26.3706V29.5194C40.0237 29.5194 40.0474 29.524 40.071 29.524C44.4001 29.5146 48.7339 28.2841 52.5561 25.8372Z" fill="currentColor"></path>
<path d="M27.4236 25.8372C26.9973 25.5658 26.5758 25.2898 26.1637 24.9857L17.5435 18.6601V30.1276C17.0462 30.1743 16.5489 30.2024 16.0421 30.2024C15.488 30.2024 14.9385 30.1743 14.3986 30.1182V18.618C10.9647 21.1398 7.53086 23.6569 4.09696 26.1788C3.74647 25.7904 3.37703 25.3413 3.01233 24.8359C2.71867 24.4242 2.45817 24.0265 2.23557 23.6522C5.21001 21.4673 8.1892 19.287 11.1636 17.102H0.0805181C0.0284182 16.592 0 16.0727 0 15.5441C0 15.0153 0.0284182 14.496 0.0805181 13.9814H11.1636L2.24977 7.43586C2.51975 6.98671 2.84182 6.50012 3.21599 5.9995C3.51912 5.59713 3.82225 5.23687 4.11117 4.91404L14.3938 12.4608V0.983936C14.9385 0.927791 15.488 0.899719 16.0421 0.899719C16.5489 0.899719 17.051 0.927791 17.5435 0.974578V12.4233L26.1637 6.09775C26.5758 5.79364 26.9973 5.5176 27.4236 5.24623C30.6348 3.21568 33.5477 2.45772 34.5566 2.21444C35.9017 1.89161 37.7536 1.57813 39.9844 1.58281C39.9844 2.62616 39.9844 3.67419 39.9844 4.71754C36.489 4.71286 32.9841 5.61117 29.8391 7.44523C29.5834 7.59492 29.3276 7.74933 29.0765 7.91311C28.7261 8.13768 28.3756 8.36225 28.0393 8.61492L20.7216 13.9814H32.0036H32.0841V17.1068H32.0036H20.7216L28.0346 22.4732C28.3756 22.7212 28.7261 22.9505 29.0718 23.175C29.3229 23.3341 29.5786 23.4932 29.8344 23.6429C32.9794 25.4769 36.4843 26.3799 39.9844 26.3706V29.5193C39.9607 29.5193 39.937 29.524 39.9134 29.524C35.5796 29.5146 31.2459 28.2842 27.4236 25.8372Z" fill="currentColor"></path>
</svg>
